# xmcd
#
# Track frame offsets:
#	150
#	25983
#	53114
#	70538
#	96799
#	114553
#	138083
#	164803
#	180159
#	204192
#	231005
#
# Disc length: 3447 seconds
# Revision: 0
# Processed by: cddbd v1.5.2PL0 Copyright (c) Steve Scherf et al.
# Submitted via: dBpowerAMP V12.0
#
DISCID=870d750b
DTITLE=Chick Rodgers - Essentially Yours
DYEAR=2008
DGENRE=Blues
TTITLE0=To Know You Is To Love You
TTITLE1=No Love
TTITLE2=Don't Play That Song
TTITLE3=I'm A Woman
TTITLE4=Over The Rainbow
TTITLE5=Let's Make A Deal
TTITLE6=Summertime
TTITLE7=Baby, I Love You
TTITLE8=Ain't No Way
TTITLE9=I'll Play The Blues For You
TTITLE10=Grace By Faith
EXTD=
EXTT0=
EXTT1=
EXTT2=
EXTT3=
EXTT4=
EXTT5=
EXTT6=
EXTT7=
EXTT8=
EXTT9=
EXTT10=
PLAYORDER=
